<?xml version="1.0" encoding="UTF-8"?>
<!DOCTYPE svg PUBLIC "-//W3C//DTD SVG 1.1//EN" "http://www.w3.org/Graphics/SVG/1.1/DTD/svg11.dtd">
<!-- Creator: CorelDRAW -->
<svg xmlns="http://www.w3.org/2000/svg" xml:space="preserve" width="300mm" height="300mm" style="shape-rendering:geometricPrecision; text-rendering:geometricPrecision; image-rendering:optimizeQuality; fill-rule:evenodd; clip-rule:evenodd"
viewBox="0 0 300 300"
 xmlns:xlink="http://www.w3.org/1999/xlink">
 <defs>
  <style type="text/css">
   <![CDATA[
    .fil0 {fill:#FEFEFE}
   ]]>
  </style>
 </defs>
 <g id="Capa_x0020_1">
  <metadata id="CorelCorpID_0Corel-Layer"/>
  <path class="fil0" d="M243.833 172.676c0,52.1476 -42.2739,94.4216 -94.4215,94.4216 -52.1476,0 -94.4215,-42.274 -94.4215,-94.4216l0 -40.838c0,-7.4482 -6.0382,-13.4864 -13.4864,-13.4864 -7.4483,0 -13.4864,6.0382 -13.4864,13.4864l-0.0005 40.838c0,67.0445 54.3503,121.395 121.395,121.395 67.0445,0 121.395,-54.3503 121.395,-121.395l-0.298 -75.1959c0,-49.9948 -40.5287,-90.5234 -90.523,-90.5234 -49.9948,0 -90.5235,40.5286 -90.5235,90.5234l0 80.7585c0,33.109 26.8406,59.9496 59.9497,59.9496 33.1091,0 59.9497,-26.8406 59.9497,-59.9496 0,-33.1091 -26.8406,-59.9497 -59.9497,-59.9497 -7.262,0 -13.1489,5.8869 -13.1489,13.1489 0,7.2619 5.8869,13.1488 13.1489,13.1488 18.5856,0 33.6519,15.0664 33.6519,33.652 0,18.5855 -15.0663,33.6519 -33.6519,33.6519 -18.5856,0 -33.6519,-15.0664 -33.6519,-33.6519l0 -80.7589c0,-35.3664 28.6699,-63.8473 64.0363,-63.8473 35.3663,0 64.0367,28.6699 64.0367,64.0362l0.0004 75.0074z"/>
 </g>
</svg>
